<svg xmlns="http://www.w3.org/2000/svg" width="187.952" height="55.28" viewBox="0 0 187.952 55.28">
  <g id="_01_Button_05_Google_Play" data-name=" 01 Button 05 Google Play" transform="translate(-153.707 -767.645)">
    <g id="Google_Play" data-name="Google Play">
      <rect id="Placeholder" width="187.952" height="55.28" rx="5.528" transform="translate(153.707 767.645)" fill="#025a10"/>
      <g id="Group">
        <g id="Text">
          <path id="layer" d="M226.34,801.4h-7.612v2.262h5.4c-.266,3.173-2.9,4.526-5.389,4.526a5.942,5.942,0,0,1-5.96-5.921v-.1a5.953,5.953,0,0,1,5.841-6.06h.13a5.856,5.856,0,0,1,4.069,1.636l1.582-1.641a8.029,8.029,0,0,0-5.736-2.263,8.312,8.312,0,1,0,.12,16.622,7.31,7.31,0,0,0,7.689-6.913c.012-.214.014-.429.006-.643a6.816,6.816,0,0,0-.138-1.5h0" fill="#fffffe"/>
          <path id="layer-2" d="M232.847,810.44a5.354,5.354,0,0,1-3.909-1.607,5.42,5.42,0,0,1-1.489-3.777,5.274,5.274,0,0,1,5.247-5.3h.115a5.553,5.553,0,0,1,3.638,1.353,5.142,5.142,0,0,1,1.714,4.007,5.241,5.241,0,0,1-5.316,5.323Zm-.005-8.583a3.077,3.077,0,0,0-3.056,3.1q0,.066,0,.132a3.087,3.087,0,0,0,2.912,3.252c.045,0,.089,0,.134.005a3.1,3.1,0,0,0,3-3.188l0-.053a3.333,3.333,0,0,0-.92-2.375A2.945,2.945,0,0,0,232.842,801.857Z" fill="#fffffe"/>
          <path id="layer-3" d="M244.636,810.44a5.354,5.354,0,0,1-3.909-1.607,5.42,5.42,0,0,1-1.489-3.777,5.274,5.274,0,0,1,5.247-5.3h.115a5.558,5.558,0,0,1,3.639,1.353,5.142,5.142,0,0,1,1.713,4.007,5.241,5.241,0,0,1-5.316,5.323Zm-.005-8.583a3.077,3.077,0,0,0-3.055,3.1c0,.044,0,.089,0,.133a3.088,3.088,0,0,0,2.914,3.251l.131,0a3.1,3.1,0,0,0,3-3.188l0-.053a3.333,3.333,0,0,0-.92-2.375A2.945,2.945,0,0,0,244.631,801.857Z" fill="#fffffe"/>
          <path id="layer-4" d="M256.235,815.252a5.164,5.164,0,0,1-4.8-3.147l2.051-.858a2.956,2.956,0,0,0,2.731,1.9,2.667,2.667,0,0,0,2.8-2.945V809.15a3.537,3.537,0,0,1-2.924,1.3,5.033,5.033,0,0,1-3.457-1.468,5.358,5.358,0,0,1-1.614-3.88,5.5,5.5,0,0,1,1.484-3.727,4.964,4.964,0,0,1,3.636-1.611,3.771,3.771,0,0,1,2.874,1.226v-.9h2.239v9.6a5.86,5.86,0,0,1-1.437,4.2A4.867,4.867,0,0,1,256.235,815.252Zm.118-13.4a3.065,3.065,0,0,0-2.991,3.137q0,.069.006.138a3.32,3.32,0,0,0,.907,2.347,2.85,2.85,0,0,0,2.049.868,2.8,2.8,0,0,0,1.979-.834,3.335,3.335,0,0,0,.9-2.4,3.4,3.4,0,0,0-.9-2.4A2.745,2.745,0,0,0,256.353,801.857Z" fill="#fffffe"/>
          <path id="layer-5" d="M271.931,810.445a5.162,5.162,0,0,1-5.235-5.36,5.05,5.05,0,0,1,4.758-5.327c.073,0,.145-.007.218-.008a4.548,4.548,0,0,1,2.764.926,5.2,5.2,0,0,1,1.671,2.2l.372.87-7.152,2.973a2.764,2.764,0,0,0,2.615,1.62,2.969,2.969,0,0,0,2.614-1.471L276.4,808.1A5.375,5.375,0,0,1,271.931,810.445Zm-.165-8.641a2.865,2.865,0,0,0-2.09,1.025,2.715,2.715,0,0,0-.714,2.117l4.776-2a2.119,2.119,0,0,0-1.972-1.14Z" fill="#fffffe"/>
          <path id="layer-6" d="M263.052,810.128h2.35V794.382h-2.35Z" fill="#fffffe"/>
          <path id="layer-7" d="M294.55,810.128H296.9V794.382H294.55Z" fill="#fffffe"/>
          <path id="layer-8" d="M282.092,810.128h2.349V794.382h-2.349Z" fill="#fffffe"/>
          <path id="layer-9" d="M287.775,804.415h-5.683V794.382h5.683a5.016,5.016,0,0,1,0,10.033Zm-3.334-7.68v5.327h3.334a2.664,2.664,0,0,0,0-5.327Z" fill="#fffffe"/>
          <path id="layer-10" d="M314.244,815.253l6.8-15.5h-2.566l-6.8,15.5h2.566" fill="#fffffe"/>
          <path id="layer-11" d="M315,811.7l-5.245-11.954h2.566l3.618,8.245H315V811.7" fill="#fffffe"/>
          <path id="layer-12" d="M302.988,810.431a3.468,3.468,0,0,1-3.728-4.181,3.789,3.789,0,0,1,3.6-3.216,6.4,6.4,0,0,1,.648-.032,11.6,11.6,0,0,1,2.95.451,2.608,2.608,0,0,0-2.8-2.252,3.083,3.083,0,0,0-2.728,1.531l-1.891-1.272a5.568,5.568,0,0,1,4.671-2.444,5.316,5.316,0,0,1,3.886,1.593,5.013,5.013,0,0,1,1.268,3.855v5.663h-2.35v-1.271a4.016,4.016,0,0,1-2.042,1.373A5.632,5.632,0,0,1,302.988,810.431Zm.844-5.382c-1.547,0-2.114.866-2.128,1.607a1.57,1.57,0,0,0,1.532,1.606h.082a2.262,2.262,0,0,0,.6-.084,3.536,3.536,0,0,0,2.6-2.6,9.954,9.954,0,0,0-1.954-.47A4.913,4.913,0,0,0,303.832,805.049Z" fill="#fffffe"/>
          <path id="layer-13" d="M219.642,783.382H216.07v1H218.6a2.312,2.312,0,0,1-2.529,2,2.71,2.71,0,0,1-2.795-2.624v-.04a2.714,2.714,0,0,1,2.747-2.681h.053a2.82,2.82,0,0,1,1.909.723l.743-.725a3.8,3.8,0,1,0-2.634,6.349,3.34,3.34,0,0,0,3.6-3.061c.008-.093.011-.187.011-.28a2.789,2.789,0,0,0-.065-.663h0" fill="#fffffe"/>
          <path id="layer-14" d="M234.887,787.386h1.265v-7.351h-1.265Z" fill="#fffffe"/>
          <path id="layer-15" d="M227.971,787.386h1.181v-6.252h1.94v-1.1h-5.061v1.1h1.94v6.252" fill="#fffffe"/>
          <path id="layer-16" d="M220.971,787.386h3.8v-1.1h-2.8v-2.027h2.462v-1.1h-2.462v-2.028h2.8v-1.1h-3.8v7.351" fill="#fffffe"/>
          <path id="layer-17" d="M239.356,787.386h1.182v-6.252h1.939v-1.1h-5.06v1.1h1.939v6.252" fill="#fffffe"/>
          <path id="layer-18" d="M248.8,787.386a3.857,3.857,0,0,1-2.746-1.16,3.666,3.666,0,0,1-1.049-2.525,3.8,3.8,0,0,1,7.59,0,3.672,3.672,0,0,1-1.05,2.525A3.853,3.853,0,0,1,248.8,787.386Zm0-6.347a2.666,2.666,0,1,0,.01,0Z" fill="#fffffe"/>
          <path id="layer-19" d="M253.863,787.386h.971v-5.354l3.119,5.354h.97v-7.351h-.97v5.352l-3.119-5.352h-.971v7.351" fill="#fffffe"/>
        </g>
        <path id="layer-20" d="M173.142,808.552h0l12.186-12.7,3.681,3.785-15.532,8.753A2.649,2.649,0,0,1,173.142,808.552Zm-1.056,0h0a1.656,1.656,0,0,1-.578-1.451c0-.31-.009-1.719-.018-3.707v-.458c-.01-2.5-.027-5.8-.042-8.959v-.364c-.029-5.652-.051-9.4-.051-10.018a1.506,1.506,0,0,1,.627-1.421L184.792,795.3l-12.705,13.241Zm17.608-9.3h0l-3.841-3.949,3.837-4,5.284,2.968c.495.279.746.6.747.964a1.342,1.342,0,0,1-.747,1.04l-5.279,2.977Zm-4.373-4.5h0l-12.386-12.737a1.573,1.573,0,0,1,.542.175L189,790.915l-3.682,3.837Z" fill="#fffffe"/>
      </g>
    </g>
  </g>
</svg>
