<svg xmlns="http://www.w3.org/2000/svg" width="187.952" height="55.28" viewBox="0 0 187.952 55.28">
  <g id="_01_Button_04_Apple_Store" data-name=" 01 Button 04 Apple Store" transform="translate(-371.51 -767.645)">
    <g id="App_Store" data-name="App Store">
      <path id="Placeholder-2" d="M377.038,767.645h176.9a5.528,5.528,0,0,1,5.528,5.528V817.4a5.528,5.528,0,0,1-5.528,5.528h-176.9a5.528,5.528,0,0,1-5.528-5.528V773.173A5.528,5.528,0,0,1,377.038,767.645Z" fill="#025a10"/>
      <g id="Group-2">
        <g id="Text-2">
          <path id="layer-21" d="M431.229,809.19h-2.91l5.639-16.441h3.483l5.666,16.439h-2.985l-1.641-4.83h-5.692l-1.558,4.83Zm4.341-14.246c-.17.693-.442,1.706-.831,3.1l-1.454,4.294h4.7l-1.481-4.293c-.154-.434-.442-1.446-.884-3.1Z" fill="#fff"/>
          <path id="layer-22" d="M448.356,814.018H445.55V801.236c0-1.243-.035-2.555-.1-3.9h2.468l.157,1.879h.053a4.778,4.778,0,0,1,4.262-2.124,4.828,4.828,0,0,1,3.728,1.659,6.3,6.3,0,0,1,1.494,4.366,6.512,6.512,0,0,1-1.739,4.778,5.275,5.275,0,0,1-3.87,1.561,3.965,3.965,0,0,1-3.59-1.682h-.053v6.245Zm3.119-14.826a3.044,3.044,0,0,0-1.879.645,2.992,2.992,0,0,0-1.106,1.7,3.215,3.215,0,0,0-.13.8v1.973a3.067,3.067,0,0,0,.844,2.18,2.9,2.9,0,0,0,2.2.891,2.948,2.948,0,0,0,2.465-1.143,4.835,4.835,0,0,0,.885-3.025,4.687,4.687,0,0,0-.831-2.853A2.947,2.947,0,0,0,451.475,799.192Z" fill="#fff"/>
          <path id="layer-23" d="M462.884,814.018h-2.806V801.236c0-1.243-.034-2.555-.1-3.9h2.468l.157,1.879h.053a4.776,4.776,0,0,1,4.262-2.124,4.84,4.84,0,0,1,3.73,1.659,6.31,6.31,0,0,1,1.491,4.366,6.5,6.5,0,0,1-1.742,4.778,5.265,5.265,0,0,1-3.87,1.561,3.962,3.962,0,0,1-3.586-1.682h-.053v6.245ZM466,799.192a3.049,3.049,0,0,0-1.88.645,2.985,2.985,0,0,0-1.105,1.7,3.271,3.271,0,0,0-.131.8v1.973a3.084,3.084,0,0,0,.84,2.18,2.907,2.907,0,0,0,2.2.891,2.954,2.954,0,0,0,2.469-1.143,4.849,4.849,0,0,0,.885-3.025,4.687,4.687,0,0,0-.833-2.853A2.946,2.946,0,0,0,466,799.192Z" fill="#fff"/>
          <path id="layer-24" d="M488.378,804.578a4.26,4.26,0,0,1-1.556,3.409,7.191,7.191,0,0,1-4.771,1.437,8.782,8.782,0,0,1-4.54-1.017l.65-2.2a8.072,8.072,0,0,0,4.056,1.051,4.018,4.018,0,0,0,2.471-.673,2.14,2.14,0,0,0,.885-1.8,2.217,2.217,0,0,0-.728-1.685,6.874,6.874,0,0,0-2.416-1.271q-4.6-1.611-4.6-4.715a4.069,4.069,0,0,1,1.612-3.316,6.636,6.636,0,0,1,4.289-1.3,8.968,8.968,0,0,1,3.98.781L487,795.436a7.263,7.263,0,0,0-3.352-.756,3.54,3.54,0,0,0-2.312.683,1.9,1.9,0,0,0-.7,1.488,1.963,1.963,0,0,0,.8,1.61,9.285,9.285,0,0,0,2.543,1.268,8.72,8.72,0,0,1,3.332,2A4.024,4.024,0,0,1,488.378,804.578Z" fill="#fff"/>
          <path id="layer-25" d="M497.656,799.311h-3.092v5.755q0,2.2,1.637,2.194a5.269,5.269,0,0,0,1.246-.122l.077,2a6.741,6.741,0,0,1-2.182.292,3.488,3.488,0,0,1-2.6-.951,4.471,4.471,0,0,1-.936-3.2v-5.971h-1.843v-1.981h1.843v-2.17l2.757-.781v2.951h3.1v1.979Z" fill="#fff"/>
          <path id="layer-26" d="M505.321,809.456a5.857,5.857,0,0,1-4.43-1.73,6.1,6.1,0,0,1-1.651-4.365,6.241,6.241,0,0,1,1.7-4.512,6.113,6.113,0,0,1,4.586-1.756,5.745,5.745,0,0,1,6.084,6.071,6.291,6.291,0,0,1-1.658,4.488A6.164,6.164,0,0,1,505.321,809.456Zm.111-10.438a2.863,2.863,0,0,0-2.577,1.419,5.21,5.21,0,0,0-.752,2.862,5.1,5.1,0,0,0,.752,2.812,2.958,2.958,0,0,0,5.067-.026,5.611,5.611,0,0,0,.021-5.648A2.815,2.815,0,0,0,505.432,799.018Z" fill="#fff"/>
          <path id="layer-27" d="M520.733,799.651a5.139,5.139,0,0,0-.884-.073,2.715,2.715,0,0,0-2.288,1.05,3.776,3.776,0,0,0-.7,2.341v6.219h-2.8l.032-8.117q0-2.052-.11-3.735h2.444l.1,2.268h.077A4.065,4.065,0,0,1,518,797.726a3.541,3.541,0,0,1,2.029-.635,4.71,4.71,0,0,1,.7.049v2.511Z" fill="#fff"/>
          <path id="layer-28" d="M528.35,809.408a6.39,6.39,0,0,1-4.615-1.622,5.8,5.8,0,0,1-1.676-4.353,6.544,6.544,0,0,1,1.561-4.462,5.547,5.547,0,0,1,4.416-1.9,4.836,4.836,0,0,1,4.135,1.9,6.148,6.148,0,0,1,1.113,3.73,5.763,5.763,0,0,1-.1,1.194h-8.419a3.36,3.36,0,0,0,1.223,2.682,4.37,4.37,0,0,0,2.753.829,9.9,9.9,0,0,0,3.406-.561l.442,1.827A11.183,11.183,0,0,1,528.35,809.408Zm-.524-10.514a2.73,2.73,0,0,0-2.234,1.074,3.8,3.8,0,0,0-.83,2.048h5.846a3.424,3.424,0,0,0-.545-2.024A2.507,2.507,0,0,0,527.826,798.894Z" fill="#fff"/>
          <path id="layer-29" d="M432,786.937a17.887,17.887,0,0,1-2.017-.1V778.9a16,16,0,0,1,2.376-.168,5.394,5.394,0,0,1,3.409.922,3.636,3.636,0,0,1,1.29,2.986,3.948,3.948,0,0,1-1.4,3.279A5.815,5.815,0,0,1,432,786.937Zm.474-7.186a6.1,6.1,0,0,0-1.113.084v6.037a7.843,7.843,0,0,0,.932.035,3.4,3.4,0,0,0,2.444-.826,3.2,3.2,0,0,0,.863-2.408,2.853,2.853,0,0,0-.8-2.175,3.277,3.277,0,0,0-2.33-.749Z" fill="#fff"/>
          <path id="layer-30" d="M441.68,787a2.874,2.874,0,0,1-2.176-.851,3,3,0,0,1-.81-2.144,3.066,3.066,0,0,1,.836-2.218,3.015,3.015,0,0,1,2.255-.861,2.825,2.825,0,0,1,2.99,2.985,3.1,3.1,0,0,1-.817,2.205A3.023,3.023,0,0,1,441.68,787Zm.054-5.129a1.408,1.408,0,0,0-1.265.7,2.549,2.549,0,0,0-.37,1.406,2.518,2.518,0,0,0,.364,1.382,1.418,1.418,0,0,0,1.252.7,1.4,1.4,0,0,0,1.244-.705,2.77,2.77,0,0,0,.01-2.78A1.385,1.385,0,0,0,441.734,781.87Z" fill="#fff"/>
          <path id="layer-31" d="M455.111,781.043l-1.941,5.824h-1.264l-.809-2.529a18.177,18.177,0,0,1-.5-1.879h-.019a13.1,13.1,0,0,1-.5,1.879l-.855,2.529h-1.278l-1.825-5.824h1.417l.7,2.764q.255.982.422,1.869h.024q.153-.73.512-1.856l.881-2.777h1.128l.843,2.72q.306,1,.5,1.917h.038a17.249,17.249,0,0,1,.422-1.917l.748-2.72Z" fill="#fff"/>
          <path id="layer-32" d="M462.262,786.865h-1.378v-3.334q0-1.542-1.251-1.542a1.28,1.28,0,0,0-.995.423,1.448,1.448,0,0,0-.382.995v3.457h-1.382v-4.157q0-.766-.05-1.667h1.216l.064.91h.039a1.935,1.935,0,0,1,.711-.7,2.446,2.446,0,0,1,1.25-.331,2.052,2.052,0,0,1,1.444.527,2.471,2.471,0,0,1,.714,1.929Z" fill="#fff"/>
          <path id="layer-33" d="M466.066,786.865h-1.378v-8.494h1.378Z" fill="#fff"/>
          <path id="layer-34" d="M471.1,787a2.875,2.875,0,0,1-2.176-.851A3,3,0,0,1,468.11,784a3.066,3.066,0,0,1,.836-2.218,3.012,3.012,0,0,1,2.252-.861,2.825,2.825,0,0,1,2.993,2.985,3.1,3.1,0,0,1-.817,2.205A3.027,3.027,0,0,1,471.1,787Zm.054-5.129a1.4,1.4,0,0,0-1.265.7,2.557,2.557,0,0,0-.37,1.406,2.528,2.528,0,0,0,.365,1.382,1.416,1.416,0,0,0,1.252.7,1.394,1.394,0,0,0,1.241-.705,2.754,2.754,0,0,0,.011-2.78A1.378,1.378,0,0,0,471.149,781.87Z" fill="#fff"/>
          <path id="layer-35" d="M477.671,787a1.94,1.94,0,0,1-1.416-.527,1.6,1.6,0,0,1-.485-1.186,1.792,1.792,0,0,1,.95-1.629,5.141,5.141,0,0,1,2.6-.553h.08v-.11c0-.763-.433-1.15-1.288-1.15a3.035,3.035,0,0,0-1.617.431l-.28-.847a4.2,4.2,0,0,1,2.127-.5,2.148,2.148,0,0,1,2.43,1.821,2.185,2.185,0,0,1,0,.588v2.144a8.732,8.732,0,0,0,.09,1.389h-1.236l-.1-.672h-.038A2.183,2.183,0,0,1,477.671,787Zm1.625-3.032a3.467,3.467,0,0,0-1.61.294.948.948,0,0,0-.538.884.849.849,0,0,0,.265.682,1,1,0,0,0,.673.228,1.448,1.448,0,0,0,.843-.27,1.107,1.107,0,0,0,.479-.69,1,1,0,0,0,.022-.226v-.9H479.3Z" fill="#fff"/>
          <path id="layer-36" d="M485.382,786.995a2.4,2.4,0,0,1-1.863-.824,3.1,3.1,0,0,1-.74-2.144,3.263,3.263,0,0,1,.8-2.288,2.559,2.559,0,0,1,1.916-.815,1.912,1.912,0,0,1,1.748.79h.025v-3.343h1.382V785.3c0,.59.016,1.105.049,1.567h-1.225l-.064-.935h-.039A2.1,2.1,0,0,1,485.382,786.995Zm.431-5.069a1.456,1.456,0,0,0-1.216.576,2.368,2.368,0,0,0-.443,1.473,2.213,2.213,0,0,0,.427,1.406,1.455,1.455,0,0,0,1.206.573,1.356,1.356,0,0,0,1.089-.478,1.544,1.544,0,0,0,.4-1.067v-.97a1.8,1.8,0,0,0-.037-.407,1.469,1.469,0,0,0-.5-.784,1.414,1.414,0,0,0-.922-.319Z" fill="#fff"/>
          <path id="layer-37" d="M497.407,787a2.875,2.875,0,0,1-2.176-.851,3,3,0,0,1-.809-2.144,3.066,3.066,0,0,1,.836-2.218,3.013,3.013,0,0,1,2.26-.861,2.935,2.935,0,0,1,2.19.85,2.973,2.973,0,0,1,.795,2.135,3.1,3.1,0,0,1-.817,2.205A3.027,3.027,0,0,1,497.407,787Zm.054-5.129a1.408,1.408,0,0,0-1.264.7,2.824,2.824,0,0,0-.006,2.788,1.418,1.418,0,0,0,1.252.7,1.394,1.394,0,0,0,1.243-.705,2.76,2.76,0,0,0,.009-2.78A1.386,1.386,0,0,0,497.461,781.87Z" fill="#fff"/>
          <path id="layer-38" d="M507.916,786.865h-1.378v-3.334q0-1.542-1.252-1.542a1.271,1.271,0,0,0-1,.423,1.436,1.436,0,0,0-.383.995v3.457h-1.381v-4.157q0-.766-.048-1.667H503.7l.064.91h.039a1.944,1.944,0,0,1,.709-.7,2.456,2.456,0,0,1,1.252-.331,2.046,2.046,0,0,1,1.437.527,2.464,2.464,0,0,1,.714,1.929v3.488Z" fill="#fff"/>
          <path id="layer-39" d="M517.2,782.013h-1.519v2.828c0,.719.269,1.078.8,1.078a2.594,2.594,0,0,0,.615-.061l.035.982a3.288,3.288,0,0,1-1.071.145,1.705,1.705,0,0,1-1.276-.467,2.193,2.193,0,0,1-.46-1.57v-2.935h-.906v-.97h.906v-1.068l1.353-.382v1.449H517.2v.971Z" fill="#fff"/>
          <path id="layer-40" d="M524.5,786.865h-1.381v-3.31q0-1.564-1.249-1.566a1.31,1.31,0,0,0-1.321.908,1.529,1.529,0,0,0-.064.466v3.5h-1.373v-8.493h1.377v3.509h.027a2.119,2.119,0,0,1,1.864-.957,1.993,1.993,0,0,1,1.418.527,2.553,2.553,0,0,1,.7,1.953Z" fill="#fff"/>
          <path id="layer-41" d="M529.606,786.976a3.133,3.133,0,0,1-2.266-.8,2.846,2.846,0,0,1-.822-2.138,3.216,3.216,0,0,1,.766-2.194,2.726,2.726,0,0,1,2.169-.933,2.369,2.369,0,0,1,2.028.933,2.99,2.99,0,0,1,.554,1.831,2.956,2.956,0,0,1-.052.587h-4.139a1.64,1.64,0,0,0,.6,1.318,2.152,2.152,0,0,0,1.354.407,4.885,4.885,0,0,0,1.673-.274l.221.9A5.525,5.525,0,0,1,529.606,786.976Zm-.254-5.165a1.341,1.341,0,0,0-1.1.527,1.909,1.909,0,0,0-.411,1.008h2.875a1.677,1.677,0,0,0-.266-.995A1.236,1.236,0,0,0,529.352,781.811Z" fill="#fff"/>
        </g>
        <g id="Icon">
          <path id="layer-42" d="M408.2,796.419a6.759,6.759,0,0,1,3.377-5.683,7.387,7.387,0,0,0-5.72-2.953c-2.407-.242-4.741,1.375-5.97,1.375-1.247,0-3.136-1.352-5.17-1.312a7.671,7.671,0,0,0-6.412,3.734c-2.772,4.581-.7,11.319,1.952,15.024,1.327,1.814,2.881,3.839,4.913,3.769,1.99-.079,2.731-1.211,5.13-1.211,2.377,0,3.075,1.211,5.148,1.165,2.134-.033,3.477-1.822,4.754-3.648a14.671,14.671,0,0,0,2.182-4.238,6.6,6.6,0,0,1-4.184-6.021Z" fill="#fff"/>
          <path id="layer-43" d="M402.942,783.422a6.141,6.141,0,0,0,1.678-4.709,7.789,7.789,0,0,0-4.829,2.239,5.86,5.86,0,0,0-1.723,4.533A6.478,6.478,0,0,0,402.942,783.422Z" fill="#fff"/>
        </g>
      </g>
    </g>
  </g>
</svg>
