<svg xmlns="http://www.w3.org/2000/svg" width="246.51" height="166.228" viewBox="0 0 246.51 166.228">
  <g id="Group_931" data-name="Group 931" transform="translate(-278.724 -1463.198)">
    <circle id="Ellipse_11" data-name="Ellipse 11" cx="36.402" cy="36.402" r="36.402" transform="translate(452.431 1464.497)" fill="#39b54a"/>
    <g id="Group_930" data-name="Group 930">
      <path id="Path_790" data-name="Path 790" d="M278.724,1523.872c.882-3.921,1.447-7.947,2.7-11.743,3.971-11.987,12.016-20.936,22.185-27.995a121.542,121.542,0,0,1,49.838-20.094c12.506-2.088,24.684-.193,36.424,4.553,1.965.795,4,1.432,5.911,2.337,7.244,3.434,13.934,1.752,20.158-2.407,2.342-1.566,4.492-1.726,6.681-.549a13.966,13.966,0,0,1,4.689,3.806c3.391,4.693,1.53,9.458-4.023,11.13a37.158,37.158,0,0,0-5.562,2.063,10.535,10.535,0,0,0-6.073,7.657c-3.639,15.574-12.621,27.73-25.135,37.4-13.4,10.355-28.7,16.614-45.039,20.513-10.681,2.55-21.472,4.4-32.534,3.336a58.7,58.7,0,0,1-27.183-9.634,3.692,3.692,0,0,1-1.368-2.109c-.653-2.917-1.13-5.874-1.674-8.816Zm11.768,21.214a59.022,59.022,0,0,0,18.08,5.121c8.612,1.059,17.083-.06,25.507-1.692,16.9-3.274,32.845-8.977,47.038-18.934,13.693-9.607,23.536-22.051,27.309-38.631a11.656,11.656,0,0,1,5.918-8.144,61.954,61.954,0,0,1,8.081-3.4c1.443-.545,2.743-1.183,2.775-2.88.04-2.191-1.251-3.711-3.022-4.808a3.96,3.96,0,0,0-4.717.062c-6.045,3.828-12.6,5.894-19.7,3.547a35.6,35.6,0,0,0-10.057-1.568c-1.916-.069-3.835-.075-5.753-.1-18.849-.209-37.122,2.612-54.292,10.756-17.428,8.266-30.987,20.656-39.695,38.052-.734,1.466-1.394,2.972-2.016,4.49-.611,1.494-1.13,3.026-1.689,4.541a178.715,178.715,0,0,1,27.27-23.837,158.262,158.262,0,0,1,85.648-29.118c1.333-.057,2.644.021,2.726,1.687.075,1.541-1.148,1.754-2.407,1.868-5.043.458-10.1.808-15.117,1.486A154.1,154.1,0,0,0,314.7,1509.78a141.054,141.054,0,0,0-30.242,27.6c-.663.825-1.613,1.607-.577,2.874.24-.044.5-.081.76-.14,12.307-2.826,23.745-7.865,34.723-13.953A572.163,572.163,0,0,1,373,1499.546c6.829-2.9,13.23-6.824,19.749-10.422a11.5,11.5,0,0,0,3.576-3.288c.79-1.09,1.487-1.953,2.761-1.23,1.4.8,1.2,2.215.3,3.182a22.744,22.744,0,0,1-4.838,4.363,152.65,152.65,0,0,1-15.821,8.649c-18.847,8.311-37.462,17.03-55.419,27.179-7.83,4.426-16.246,7.82-24.41,11.652-1.069.5-2.224.82-3.339,1.223a3.413,3.413,0,0,0,2.061.443c4.652-.172,9.313-.217,13.952-.557,17.722-1.3,34.7-5.491,50.6-13.547,16.623-8.421,30.553-19.94,40.526-35.891.68-1.087,1.466-1.966,2.8-1.132,1.308.817,1.035,1.984.258,3.016-3.495,4.638-6.637,9.616-10.6,13.811-22.727,24.038-51.528,34.755-83.835,37.379C304.519,1544.929,297.656,1544.859,290.492,1545.086Zm-7.673-20.594c.226-.412.475-.813.674-1.237,8.675-18.413,22.41-31.839,40.471-40.977,14.451-7.31,29.909-10.776,45.971-11.839,4.087-.27,8.187-.359,12.281-.53l.064-.554c-3.944-.73-7.861-1.672-11.835-2.147-11.019-1.315-21.673.555-32.1,4.078-14.5,4.9-28.271,11.122-39.7,21.631C289.386,1501.435,283.618,1511.762,282.819,1524.492Z" fill="#39b54a"/>
      <path id="Path_791" data-name="Path 791" d="M429.787,1629.425c-17.756-.106-32.007-1.88-45.359-8.187a59.719,59.719,0,0,1-29.612-29.787A22.538,22.538,0,0,0,353,1588.5c-4.444-6.675-7.23-13.815-4.671-21.851a23.641,23.641,0,0,1,4.745-8.263c9.188-10.355,20.819-15.852,34.673-16.891,16.255-1.218,31.884,1.913,47.335,6.383,15.735,4.553,30.841,10.77,45.677,17.659,3.893,1.808,7.395,4.214,8.108,8.834a21.515,21.515,0,0,1-.334,6.477,16.491,16.491,0,0,1-1.543,4.657,26.612,26.612,0,0,0-2.344,15.122c1.039,9.807-2.666,16.119-11.484,20.682-7.346,3.8-15.313,5.507-23.418,6.443C442.063,1628.637,434.332,1629.057,429.787,1629.425Zm.308-3.625c3.9-.3,10.744-.628,17.539-1.391,8.032-.9,15.98-2.36,23.332-5.988,8.365-4.127,11.444-9.773,10.126-18.968a23.594,23.594,0,0,1,1.521-12.646,59.912,59.912,0,0,0,2.642-7.746c1.06-4.1-.159-6.847-3.734-9.081a18.338,18.338,0,0,0-2.545-1.323c-8.558-3.625-17.031-7.475-25.711-10.785-17.633-6.724-35.652-12.057-54.691-12.76-14.456-.533-27.9,1.891-39.277,12.122-8.5,7.641-10.671,16.478-4.969,26.47,1.149,2.013,2.707,3.819,3.668,5.908a56.831,56.831,0,0,0,30.232,29.277C400.66,1624.242,413.779,1625.735,430.1,1625.8Z" fill="#39b54a"/>
      <path id="Path_792" data-name="Path 792" d="M366.3,1571.5l-.214-2.445c-1.539.219-2.927.492-4.326.6-1.876.14-3.818.111-4.935-1.741-1.132-1.88-.515-3.751.622-5.388,3.759-5.416,9.279-8.4,15.249-10.623,9.54-3.545,19.473-4.33,29.528-3.587,24.535,1.815,47.273,9.846,69.231,20.405a16.956,16.956,0,0,1,7.843,8.413c1.47,3.139.754,5.842-1.915,8.069-1.986,1.657-4,3.28-6.139,5.032.611.509,1.021.839,1.418,1.183,4.439,3.831,3.927,10.5-1.409,12.918a79.443,79.443,0,0,1-15.258,5.243,125.534,125.534,0,0,1-53.587.6c-16.574-3.46-31.133-10.671-42.364-23.7a33.456,33.456,0,0,1-4.671-6.7c-2.256-4.511-.178-7.885,4.855-8.254C362.185,1571.383,364.162,1571.5,366.3,1571.5Zm-6.572-6.007.438.806c2.029-.349,4.08-.6,6.08-1.071,2.083-.489,2.759-.188,3.151,1.924.349,1.882.622,3.779.906,5.672.372,2.477-.3,3.1-2.774,2.858a56.21,56.21,0,0,0-7.138-.427c-2.279.068-2.931,1.162-1.674,3.068a60.083,60.083,0,0,0,6.576,8.6c10.56,11.005,23.83,16.957,38.549,19.983a121.625,121.625,0,0,0,46.925.156c6.461-1.189,12.888-2.589,18.747-5.734,3.155-1.693,3.218-5.533.2-7.48-.917-.591-1.948-1.009-2.855-1.612-1.1-.734-1.42-1.849-.4-2.761,2.59-2.325,5.252-4.578,7.992-6.723,1.968-1.541,2.655-2.875,1.131-4.828-1.849-2.367-3.934-4.985-6.525-6.265a207.865,207.865,0,0,0-45.838-16.414c-13.554-3.1-27.235-4.869-41.1-2.186-7.2,1.394-14.007,3.793-19.479,8.965A37.14,37.14,0,0,0,359.727,1565.5Z" fill="#39b54a"/>
      <path id="Path_793" data-name="Path 793" d="M460.542,1587.185a52.524,52.524,0,0,1,2.12,6.137c1.058,4.944-1.369,9.376-6.269,10.706a67.129,67.129,0,0,1-13.276,2.337c-7.505.471-15.047.315-22.571.525a4.655,4.655,0,0,1-4.63-2.747c-.669-1.34-1.488-1.279-2.766-1.225a140.143,140.143,0,0,1-14.5.161c-3.091-.191-5.994-1.459-7.259-4.862-.154-.416-1.031-.71-1.613-.8a24.682,24.682,0,0,1-11.98-4.967c-4.929-3.93-6.367-8.937-4.258-14.922a1.937,1.937,0,0,0,.106-1.132,20.455,20.455,0,0,1-.237-11.121c1.342-5.674,5.895-8.2,10.92-9.8,5.773-1.837,11.529-.785,17.135,1.017a8.489,8.489,0,0,0,4.962.22,27.675,27.675,0,0,1,16.355,1.128c4.068,1.468,7.868,3.677,11.806,5.515a4.512,4.512,0,0,0,1.744.334,30.452,30.452,0,0,1,13.359,3.548,4.219,4.219,0,0,0,2.679.527c4.278-1.094,8.013.128,11.434,2.536a86.372,86.372,0,0,1,7.248,5.7c2.881,2.529,2.707,5.83-.635,7.783-2.312,1.352-5.034,2.014-7.594,2.925A15.681,15.681,0,0,1,460.542,1587.185Zm-29.61,16.059v-.09a78.013,78.013,0,0,0,7.994-.048,132.614,132.614,0,0,0,15.581-2.158c4.761-1.076,6.039-4.457,4.139-8.983-1.655-3.942-1.852-3.935-6.14-3.347-4.991.683-10.034,1.63-14.9-.809-.385-.192-1.186.276-1.718.573-1.9,1.061-3.771,2.164-5.636,3.281-2.963,1.772-5.954,3.5-8.84,5.393a7.7,7.7,0,0,0-2.123,2.462c-1.24,2.031-.333,3.684,2,3.715C424.5,1603.276,427.718,1603.244,430.932,1603.244Zm15.4-33.57a23.775,23.775,0,0,0-11.209-2.36c-6.1.211-11.092,2.953-15.748,6.646-1.555,1.233-2.384,2.681-1.74,4.4a31.839,31.839,0,0,0,3.787,7.808c2.286,3.09,5.666,3.6,8.96,1.556a25.98,25.98,0,0,0,6.213-5.231C440,1578.423,443.036,1574.052,446.328,1569.674Zm-24.505,21.611a27.108,27.108,0,0,1-2.29-1.8,7.027,7.027,0,0,1-2.11-2.466c-1.57-4.913-5.172-5.351-9.436-4.61a18.013,18.013,0,0,1-2.047.1c-5.324.307-11.032,5.8-11.53,11.082-.338,3.589.845,5.263,4.376,5.943,5.319,1.024,10.617.517,15.889-.431a2.151,2.151,0,0,0,1.171-.654C417.858,1596.092,419.825,1593.692,421.823,1591.285Zm-22.1-31.543c-4.435-1.422-8.872-2.32-13.24-1.1-8.774,2.441-11.021,6.543-9.547,14.774a14.065,14.065,0,0,1,9.795-2.865c5.962.608,10.843,3.488,15.449,7.035.683.526,1.464,1.283,2.214,1.3,2.546.057,5.1-.17,8.248-.316-1.359-.919-2.247-1.408-3-2.051a118.273,118.273,0,0,1-9.052-7.942C398.226,1566.108,397.285,1563.027,399.723,1559.742Zm.372,20.553a44.465,44.465,0,0,0-5.316-3.286,34.88,34.88,0,0,0-8.061-2.8c-6.091-1.019-11.6,4.222-10.512,9.637,1.033,5.139,9.3,10.591,14.631,9.615C391.371,1587.454,395.25,1583.711,400.1,1580.3Zm69.476-.205.135-1c-3.467-2.384-6.787-5.03-10.442-7.081-3.962-2.223-10-.486-12.661,3.137-1.742,2.369-3.5,4.727-5.245,7.094-.619.84-1.222,1.692-2.048,2.838a30.3,30.3,0,0,0,4.043.58,80.273,80.273,0,0,0,22.98-3.671A15.535,15.535,0,0,0,469.571,1580.09Zm-39.777-15.779c-2.844-1.116-5.083-2.148-7.417-2.88-5.911-1.855-11.879-2.762-17.87-.275-2.769,1.149-3.223,2.524-1.468,4.875,2.871,3.844,6.781,6.45,10.666,8.883C417.749,1569.53,423.155,1566.542,429.794,1564.311Z" fill="#39b54a"/>
    </g>
    <path id="Path_794" data-name="Path 794" d="M510.313,1507.612l-31.84-32.293-1.451,45.327,11.336-8.933,6.306,16.106,7.566-2.962-6.306-16.106Z" fill="#fff"/>
  </g>
</svg>
