<svg xmlns="http://www.w3.org/2000/svg" width="15" height="22" viewBox="0 0 13.752 22.824">
  <path id="Path_101" data-name="Path 101" d="M3924.749,1564.217a6.715,6.715,0,0,0-5.461-3.286c-.251-.012-.506-.012-.758,0a6.715,6.715,0,0,0-5.461,3.286,7.082,7.082,0,0,0-.4,6.628l5.951,12.719a.316.316,0,0,0,.573,0l5.951-12.722A7.08,7.08,0,0,0,3924.749,1564.217Zm-5.84,6.755a3.142,3.142,0,1,1,3.142-3.141A3.144,3.144,0,0,1,3918.909,1570.972Z" transform="translate(-3912.033 -1560.922)" fill="#39b54a"/>
</svg>
