<svg xmlns="http://www.w3.org/2000/svg" width="20" height="15" viewBox="0 0 21.748 16.761">
  <g id="Group_179" data-name="Group 179" transform="translate(-3908.035 -1607.786)">
    <path id="Path_102" data-name="Path 102" d="M3918.909,1619.152a.309.309,0,0,1-.212-.083l-10.288-9.5a.223.223,0,0,0-.374.164v14.6a.222.222,0,0,0,.223.222h21.3a.222.222,0,0,0,.223-.222v-14.6a.223.223,0,0,0-.374-.164l-10.287,9.5A.309.309,0,0,1,3918.909,1619.152Z" fill="#39b54a"/>
    <path id="Path_103" data-name="Path 103" d="M3928.558,1607.786h-19.3a.289.289,0,0,0-.2.5l9.649,8.914a.288.288,0,0,0,.391,0l9.649-8.914A.289.289,0,0,0,3928.558,1607.786Z" fill="#39b54a"/>
  </g>
</svg>
