<svg xmlns="http://www.w3.org/2000/svg" width="70" height="70" viewBox="0 0 76.643 81.125">
  <g id="Group_927" data-name="Group 927" transform="translate(-389.668 -1079.574)">
    <path id="Path_781" data-name="Path 781" d="M397.97,1122.727a9.864,9.864,0,0,1-2.761-2.624,9.762,9.762,0,0,1,0-11.33,9.862,9.862,0,0,1,2.761-2.624,9.751,9.751,0,0,1,5.253-1.537h42.615a9.751,9.751,0,0,1,5.253,1.537,9.879,9.879,0,0,1,2.76,2.622,9.768,9.768,0,0,1,0,11.334,9.9,9.9,0,0,1-2.76,2.622,9.777,9.777,0,0,1-2.977,1.26l1.212,1.229,1.168,1.185,4.645,4.711a34.825,34.825,0,0,0,2.2-4.89,2.293,2.293,0,0,0,.11-.314,34.86,34.86,0,0,0,0-22.94,2.241,2.241,0,0,0-.11-.314,34.863,34.863,0,0,0-65.623,0,2.377,2.377,0,0,0-.111.314,34.877,34.877,0,0,0,0,22.94,2.6,2.6,0,0,0,.111.314,34.834,34.834,0,0,0,51.39,17.7l.2-6.286a29.8,29.8,0,0,1-10.971,5.632c2.139-3.913,3.664-9.411,4.554-15.541h6.734l.014-.447.049-1.507.048-1.507H403.223A9.752,9.752,0,0,1,397.97,1122.727Zm53.3-21.576H436.893c-.89-6.13-2.415-11.629-4.554-15.541A30,30,0,0,1,451.272,1101.151Zm-32-8.808c1.79-5.368,3.931-7.771,5.258-7.771s3.469,2.4,5.258,7.771a54.612,54.612,0,0,1,2.058,8.808H417.215A54.566,54.566,0,0,1,419.272,1092.343Zm-2.55-6.733c-2.14,3.912-3.664,9.411-4.554,15.541H397.789A29.992,29.992,0,0,1,416.722,1085.61Zm-18.933,42.115h14.379c.89,6.13,2.414,11.628,4.554,15.541A30,30,0,0,1,397.789,1127.725Zm32,8.808c-1.789,5.368-3.93,7.771-5.258,7.771s-3.468-2.4-5.258-7.771a54.827,54.827,0,0,1-2.057-8.808h14.631A54.661,54.661,0,0,1,429.788,1136.533Z" fill="#90a955"/>
    <path id="Path_782" data-name="Path 782" d="M466.311,1146.022l-12.5-12.679-3.615-3.667-1.923-1.951-.574-.583-1.364-1.384-.124-.126,0,.13-.048,1.509-.015.454-.242,7.55-.22,6.857-.388,12.119,7.775-6.127,4.923,12.575,3.376-1.322-4.924-12.575Z" fill="#90a955"/>
  </g>
</svg>
