<svg xmlns="http://www.w3.org/2000/svg" width="70" height="70" viewBox="0 0 72.284 74.808">
  <g id="Group_926" data-name="Group 926" transform="translate(-980.42 -1079.546)">
    <path id="Path_780" data-name="Path 780" d="M1051.876,1101.5l-11.764-20.235a3.039,3.039,0,0,0-3.146-1.718H996.157a3.04,3.04,0,0,0-3.146,1.718l-11.817,20.329a5.137,5.137,0,0,0-.774,2.773v6.675a10.651,10.651,0,0,0,2.351,6.677L982.83,1145a9.5,9.5,0,0,0,9.643,9.351h48.178a9.5,9.5,0,0,0,9.643-9.351l.059-27.285a10.651,10.651,0,0,0,2.351-6.677v-6.227A5.1,5.1,0,0,0,1051.876,1101.5Zm-6.193,43.5a4.942,4.942,0,0,1-5.033,4.676h-25.734v-22.326a2.724,2.724,0,0,0-2.716-2.716h-11.83a2.724,2.724,0,0,0-2.717,2.716v22.327h-5.179A4.942,4.942,0,0,1,987.44,1145c0-12.667.005.234,0-23.909a10.69,10.69,0,0,0,12.177-3.511,10.734,10.734,0,0,0,16.949,0,10.733,10.733,0,0,0,16.948,0,10.692,10.692,0,0,0,12.178,3.511C1045.679,1145.237,1045.681,1132.336,1045.683,1145Zm-9.928-33.962-.1-7.4-3.217-13.2c-.943-3.875-4.876-1.862-4.41,0l3.287,13.116-.052,7.489c0,8.186-12.46,8.186-12.46,0l-.039-20.732a2.205,2.205,0,0,0-4.41,0l-.04,20.732c0,8.186-12.459,8.186-12.459,0l.059-7.457,3.287-13.116c.467-1.863-3.467-3.873-4.41,0l-3.216,13.2-.209,7.369c0,8.241-12.46,8.241-12.46,0l.038-7.242,11.134-19.578h40.962l10.892,18.7.28,8.118C1048.215,1119.282,1035.755,1119.282,1035.755,1111.041Z" fill="#90a955" fill-rule="evenodd"/>
    <rect id="Rectangle_679" data-name="Rectangle 679" width="13.15" height="13.15" rx="2.192" transform="translate(1024.182 1126.394)" fill="#90a955"/>
  </g>
</svg>
