<svg xmlns="http://www.w3.org/2000/svg" width="165.108" height="210.61" viewBox="0 0 165.108 210.61">
  <g id="Group_1326" data-name="Group 1326" transform="translate(-849.199 -2059.924)">
    <circle id="Ellipse_15" data-name="Ellipse 15" cx="82.554" cy="82.554" r="82.554" transform="translate(849.199 2059.924)" fill="#8e6410"/>
    <g id="Group_1044" data-name="Group 1044">
      <path id="Path_814" data-name="Path 814" d="M907.5,2158.712h49.619a12.429,12.429,0,0,1,12.381,12.4v23.779a12.443,12.443,0,0,1-12.381,12.4H907.5a12.444,12.444,0,0,1-12.382-12.4v-23.779a12.43,12.43,0,0,1,12.382-12.4Z" fill="#f6f6f6" fill-rule="evenodd"/>
      <path id="Path_815" data-name="Path 815" d="M918.332,2187.275h27.947a14.626,14.626,0,0,1,14.566,14.591v54.076a14.627,14.627,0,0,1-14.566,14.592H918.332a14.627,14.627,0,0,1-14.567-14.592v-54.076a14.626,14.626,0,0,1,14.567-14.591Z" fill="#15965d" fill-rule="evenodd"/>
      <path id="Path_816" data-name="Path 816" d="M925.675,2146.6h13.26a4.582,4.582,0,0,1,4.563,4.569v8.759a4.583,4.583,0,0,1-4.563,4.571h-13.26a4.584,4.584,0,0,1-4.563-4.571v-8.759a4.583,4.583,0,0,1,4.563-4.569Z" fill="#fbd09b" fill-rule="evenodd"/>
      <path id="Path_817" data-name="Path 817" d="M932.3,2151.287c-12.975,0-24.311-8.212-30.56-20.494-6.512-.785-13.593-10.925-9.316-15.091.9-.9,2.424-1.094,4.539-.951-.119-.976-.19-1.976-.261-2.975h71.2c-.071,1-.141,2-.261,2.975,2.115-.143,3.636.047,4.539.951,4.278,4.166-2.8,14.306-9.316,15.091-6.249,12.282-17.585,20.494-30.56,20.494Z" fill="#fbd09b" fill-rule="evenodd"/>
      <path id="Path_818" data-name="Path 818" d="M907.424,2111.776l-2.092,16.923-3.921-9.069-4.016,2.523-.689-10.378Z" fill="#7d4b30" fill-rule="evenodd"/>
      <path id="Path_819" data-name="Path 819" d="M957.186,2111.776l2.092,16.923,3.921-9.069,4.016,2.523.689-10.378Z" fill="#7d4b30" fill-rule="evenodd"/>
      <path id="Path_820" data-name="Path 820" d="M954.952,2096.852c15.827,1.785,26.52,5.141,26.52,9.02,0,5.737-23.549,10.378-52.589,10.378s-52.589-4.641-52.589-10.378c0-3.713,9.79-6.949,24.524-8.782a27.8,27.8,0,0,1,54.134-.238Z" fill="#f5b402" fill-rule="evenodd"/>
      <path id="Path_821" data-name="Path 821" d="M953.621,2117.892l-12.571-1.88-.38,2.475,12.571,1.88Z" fill="#7d4b30" fill-rule="evenodd"/>
      <path id="Path_822" data-name="Path 822" d="M945.8,2127.413a2.154,2.154,0,1,0-2.162-2.142,2.152,2.152,0,0,0,2.162,2.142Z" fill="#4d4d4d" fill-rule="evenodd"/>
      <path id="Path_823" data-name="Path 823" d="M961.392,2133.459c-9.933,1.69-19.676,1.476-29.087-1.928-9.434,3.4-19.154,3.618-29.087,1.928,3.874,9.616,9.743,25.443,28.9,26.206,19.154-.763,25.4-16.59,29.277-26.206Z" fill="#7d4b30" fill-rule="evenodd"/>
      <path id="Path_824" data-name="Path 824" d="M929.5,2140.147c3.184.928,2.424.928,5.608,0,2.876-.833,5.275-.69,5.347.357s-2.186,2.571-5.062,3.4a16.852,16.852,0,0,1-1.663.381,7.185,7.185,0,0,1-2.851,0,16.8,16.8,0,0,1-1.664-.381c-2.875-.833-5.133-2.356-5.062-3.4s2.471-1.19,5.347-.357Z" fill="#fff" fill-rule="evenodd"/>
      <path id="Path_825" data-name="Path 825" d="M924.534,2132.483,913.7,2145.812,932.3,2135.2l18.607,10.616-10.836-13.329-7.771-.952Z" fill="#8a5d45" fill-rule="evenodd"/>
      <path id="Path_826" data-name="Path 826" d="M910.252,2117.892l12.6-1.88.357,2.475-12.571,1.88Z" fill="#7d4b30" fill-rule="evenodd"/>
      <path id="Path_827" data-name="Path 827" d="M918.071,2127.413a2.154,2.154,0,1,0-2.139-2.142,2.152,2.152,0,0,0,2.139,2.142Z" fill="#4d4d4d" fill-rule="evenodd"/>
      <path id="Path_828" data-name="Path 828" d="M951.483,2156.808h6.154a3.208,3.208,0,0,1,3.208,3.19v44.081a3.227,3.227,0,0,1-3.208,3.213h-6.154a3.227,3.227,0,0,1-3.208-3.213V2160a3.208,3.208,0,0,1,3.208-3.19Z" fill="#15965d" fill-rule="evenodd"/>
      <path id="Path_829" data-name="Path 829" d="M906.973,2156.808h6.155a3.208,3.208,0,0,1,3.208,3.19v44.081a3.228,3.228,0,0,1-3.208,3.213h-6.155a3.227,3.227,0,0,1-3.208-3.213V2160a3.208,3.208,0,0,1,3.208-3.19Z" fill="#15965d" fill-rule="evenodd"/>
      <path id="Path_830" data-name="Path 830" d="M933.28,2101.945c14.638,0,26.591-1.452,26.591-3.213s-11.953-3.189-26.591-3.189-26.569,1.428-26.569,3.189,11.93,3.213,26.569,3.213Z" fill="#f19d29" fill-rule="evenodd"/>
    </g>
  </g>
</svg>
