<svg xmlns="http://www.w3.org/2000/svg" width="70" height="70" viewBox="0 0 92.647 82.335">
  <g id="Group_928" data-name="Group 928" transform="translate(-685.415 -1072.753)">
    <path id="Path_783" data-name="Path 783" d="M716.639,1124.066v12.547c0,3.44,5.2,3.44,5.2,0v-12.547C721.838,1120.625,716.639,1120.625,716.639,1124.066Z" fill="#90a955" fill-rule="evenodd"/>
    <path id="Path_784" data-name="Path 784" d="M729.138,1120.5v17.556c0,3.44,5.2,3.44,5.2,0V1120.5C734.338,1117.057,729.138,1117.057,729.138,1120.5Z" fill="#90a955" fill-rule="evenodd"/>
    <path id="Path_785" data-name="Path 785" d="M741.637,1124.066v12.547c0,3.44,5.2,3.44,5.2,0v-12.547C746.837,1120.625,741.637,1120.625,741.637,1124.066Z" fill="#90a955" fill-rule="evenodd"/>
    <path id="Path_786" data-name="Path 786" d="M775.5,1097.368H750.179l-12.319-23.262c-1.61-3.041-6.1-.419-4.491,2.619l10.931,20.643H719.175l10.932-20.643c1.608-3.039-2.881-5.661-4.492-2.62L713.3,1097.368H687.98c-3.419,0-3.422,5.2,0,5.2h3.193l5.636,39.448c.967,6.768,2.979,13.073,11.595,13.073h46.668c7.752,0,10.5-5.427,11.445-12.02l5.786-40.5H775.5C778.918,1102.567,778.914,1097.368,775.5,1097.368Zm-14.147,45.518c-.529,3.7-1.721,7-6.279,7H708.405c-5.322,0-5.89-4.275-6.453-8.216l-5.586-39.106h14.177l-1.828,3.452h-1.769c-3.441,0-3.441,5.2,0,5.2h7.827a2.6,2.6,0,0,0,.3-5.182l-.462-.054,1.808-3.415h30.632l1.808,3.415-.462.054a2.6,2.6,0,0,0,.3,5.182h7.827c3.441,0,3.441-5.2,0-5.2h-1.77l-1.827-3.452H767.11Z" fill="#90a955" fill-rule="evenodd"/>
  </g>
</svg>
