<svg xmlns="http://www.w3.org/2000/svg" xmlns:xlink="http://www.w3.org/1999/xlink" width="14" height="14" viewBox="0 0 14 14">
  <defs>
    <clipPath id="clip-path">
      <rect id="Rectangle_1855" data-name="Rectangle 1855" width="14" height="14" transform="translate(1208.358 4768.591)" fill="none"/>
    </clipPath>
  </defs>
  <g id="Group_1218" data-name="Group 1218" transform="translate(-1208.358 -4768.591)">
    <g id="Group_1217" data-name="Group 1217" clip-path="url(#clip-path)">
      <g id="_03_Icon_Social_03_Google" data-name=" 03 Icon Social 03 Google">
        <path id="google" d="M1222.233,4774.191h-6.727v2.8h3.9a3.772,3.772,0,0,1-1.427,2.172h0a4.6,4.6,0,0,1-3.283.61,4.33,4.33,0,0,1-3.238-2.814l.007-.023a4.185,4.185,0,0,1,0-2.742h0a4.3,4.3,0,0,1,3.172-2.78,4.081,4.081,0,0,1,3.641.977c.136-.133,1.88-1.836,2.011-1.974a7.207,7.207,0,0,0-11.168,2.032h0v.008h0a6.838,6.838,0,0,0,0,6.274l-.007.006a7.129,7.129,0,0,0,4.536,3.616,7.32,7.32,0,0,0,6.587-1.45h0a7.228,7.228,0,0,0,1.993-6.712" fill="#8CC63F"/>
      </g>
    </g>
  </g>
</svg>
