<svg xmlns="http://www.w3.org/2000/svg" xmlns:xlink="http://www.w3.org/1999/xlink" width="16" height="16.001" viewBox="0 0 16 16.001">
  <defs>
    <clipPath id="clip-path">
      <rect id="Rectangle_1854" data-name="Rectangle 1854" width="16" height="16.001" transform="translate(1175.358 4766.591)" fill="none"/>
    </clipPath>
  </defs>
  <g id="Group_1216" data-name="Group 1216" transform="translate(-1175.358 -4766.591)">
    <g id="Group_1215" data-name="Group 1215" clip-path="url(#clip-path)">
      <g id="_03_Icon_Social_01_Linked_IN" data-name=" 03 Icon Social 01 Linked IN">
        <path id="linkedin" d="M1184.434,4782.591h-3.076v-10.407h3.076v1.17a3.787,3.787,0,0,1,3.141-1.763c2.369,0,3.783,1.586,3.783,4.241v6.759h-3.077v-5.6c0-1.548-.646-2.4-1.823-2.4-1.266,0-2.024.9-2.024,2.4Zm-6.076,0h-3v-10h3Zm-1.5-13a1.5,1.5,0,1,1,1.061-.44A1.5,1.5,0,0,1,1176.858,4769.591Z" fill="#8CC63F"/>
      </g>
    </g>
  </g>
</svg>
