<svg xmlns="http://www.w3.org/2000/svg" xmlns:xlink="http://www.w3.org/1999/xlink" width="16" height="14" viewBox="0 0 16 14">
  <defs>
    <clipPath id="clip-path">
      <rect id="Rectangle_1853" data-name="Rectangle 1853" width="16" height="14" transform="translate(1140.358 4768.591)" fill="none"/>
    </clipPath>
  </defs>
  <g id="Group_1214" data-name="Group 1214" transform="translate(-1140.358 -4768.591)">
    <g id="Group_1213" data-name="Group 1213" clip-path="url(#clip-path)">
      <g id="_03_Icon_Social_02_Twitter" data-name=" 03 Icon Social 02 Twitter">
        <path id="twitter" d="M1145.39,4782.591c6.038,0,9.34-5.387,9.34-10.058,0-.153,0-.306-.01-.457a6.964,6.964,0,0,0,1.638-1.83,6.188,6.188,0,0,1-1.885.557,3.519,3.519,0,0,0,1.443-1.956,6.3,6.3,0,0,1-2.085.858,3.122,3.122,0,0,0-4.4-.38,3.089,3.089,0,0,0-.243.227,3.72,3.72,0,0,0-.95,3.378,9.12,9.12,0,0,1-6.765-3.694,3.7,3.7,0,0,0,1.016,4.719,3.09,3.09,0,0,1-1.49-.442v.045a3.484,3.484,0,0,0,2.634,3.464,3.034,3.034,0,0,1-1.482.06,3.326,3.326,0,0,0,3.066,2.455,6.292,6.292,0,0,1-4.076,1.517,6.359,6.359,0,0,1-.782-.051,8.824,8.824,0,0,0,5.032,1.588" fill="#8CC63F"/>
      </g>
    </g>
  </g>
</svg>
