<svg xmlns="http://www.w3.org/2000/svg" width="70.938" height="70.947" viewBox="0 0 70.938 70.947">
  <g id="Group_13" data-name="Group 13" transform="translate(-146.352 -4621.409)">
    <path id="Path_1" data-name="Path 1" d="M181.143,4621.415a35.479,35.479,0,0,0-31.2,51.025,2.187,2.187,0,0,0,4.153-.987,44.238,44.238,0,0,1,3.666-17.025c4.02-9.693,11.316-19.037,20.741-23.95,5.434-2.833,12.722-4.463,18.238-1.01,5.971,3.739,5.9,13.005.423,17.185a9.05,9.05,0,0,1-2.161,1.223,9.9,9.9,0,0,1-3.649.691c-2.9,0-6.845-1.289-6.845-5.8a5.943,5.943,0,0,1,2.416-4.912,1.2,1.2,0,0,1,1.693.125,1.188,1.188,0,0,1,.24.438,3.462,3.462,0,0,0,4.144,2.606c.044-.01.088-.021.132-.033,4.579-1.038,3.8-7.764.257-9.594-8.421-4.356-16.235,5.055-20.669,11a53.5,53.5,0,0,0-6.9,12.367,41.053,41.053,0,0,0-3.016,14.5c-.031,4.066.613,8.859,3.626,11.913,3.985,4.039,10.541,2.73,15.127.519,5.853-2.822,10.628-7.7,14.136-13.1.017-.026.247-.4.252-.392s-4.643,18.268-23.291,21.228l-.162.025a.824.824,0,0,0-.109,1.609,35.469,35.469,0,1,0,8.755-69.656Zm6.025,63.048s11.56-11.068,9.923-19.342a63.485,63.485,0,0,1-13.684,13.542s-2.951-12.57,16.285-19.935c0,0,8.812,15.28-12.524,25.736Z" fill="#025a10"/>
  </g>
</svg>
